<?xml version="1.0" encoding="utf-8"?>
<!-- Generator: Adobe Illustrator 22.1.0, SVG Export Plug-In . SVG Version: 6.00 Build 0)  -->
<svg version="1.1" id="Calque_1"  xmlns="http://www.w3.org/2000/svg" xmlns:xlink="http://www.w3.org/1999/xlink" x="0px" y="0px"
	 viewBox="0 0 100 100" style="enable-background:new 0 0 100 100;" xml:space="preserve">
<g>
	<path d="M50,95c24.9,0,45-20.1,45-45S74.9,5,50,5S5,25.1,5,50S25.1,95,50,95z M50,93.5C26,93.5,6.5,74,6.5,50S26,6.5,50,6.5
		S93.5,26,93.5,50S74,93.5,50,93.5z"/>
	<path d="M27.8,51.1l16,14.4l0.5-1.3l-15-13.4h44.2v-1.5H29.2l15.1-13.5l-0.5-1.3l-16,14.4L26.5,50L27.8,51.1z M28.5,50.1L28.5,50.1
		v-0.2V50.1z"/>
</g>
</svg>
