<?xml version="1.0" encoding="utf-8"?>
<!-- Generator: Adobe Illustrator 22.1.0, SVG Export Plug-In . SVG Version: 6.00 Build 0)  -->
<svg version="1.1" id="Calque_1" xmlns="http://www.w3.org/2000/svg" xmlns:xlink="http://www.w3.org/1999/xlink" x="0px" y="0px"
	 viewBox="0 0 100 100" style="enable-background:new 0 0 100 100;" xml:space="preserve">
<g>
	<polygon points="48.7,34.7 63,49 31.4,49 31.4,51 63,51 48.7,65.3 50.1,66.7 66.8,50 50.1,33.3 	"/>
	<path d="M50,9C27.4,9,9,27.4,9,50s18.4,41,41,41s41-18.4,41-41S72.6,9,50,9z M50,89c-21.5,0-39-17.5-39-39s17.5-39,39-39
		s39,17.5,39,39S71.5,89,50,89z"/>
</g>
</svg>
